<svg width="77" height="77" fill="none" xmlns="http://www.w3.org/2000/svg"><g clip-path="url(#clip0_1_215)"><path d="M6.21 38.624L0 38.5v-1.49l6.21.124v1.49zm-2.98 7.203l3.725-.62.248 1.365-6.21.994-.248-1.242 3.478-3.477-3.85.62-.249-1.365 6.21-.994.248 1.49-3.353 3.23zm2.856 8.943c-.746.496-.746 1.241-.373 1.862.373.622.745.87 1.118.622.372-.249.248-.621.124-1.118l-.373-1.118c-.372-.994-.124-1.863.746-2.36 1.117-.62 2.235-.124 2.98 1.242.87 1.49.497 2.733-.62 3.354l-.746-1.242c.621-.373.745-.994.373-1.615-.249-.497-.746-.745-1.118-.497-.373.125-.249.497-.124.87l.372 1.117C8.818 57.13 8.57 58 7.7 58.495c-1.118.621-2.235 0-2.98-1.241-.87-1.49-.622-2.857.62-3.602l.746 1.118zm9.066 5.96l-2.981 6.086-1.118-1.242.621-1.366-1.739-1.863-1.242.621-.993-1.118 6.334-2.36 1.118 1.243zm-3.975 1.243l1.118 1.242.994-1.988-2.112.746zm8.446 7.079l2.11-3.105 1.119.745-3.478 5.216-.993-.62-.249-4.968-2.235 3.353-1.118-.745 3.477-5.217 1.242.746.125 4.595zm6.83 6.085l1.615-6.085 4.47 1.242-.372 1.242-2.98-.746-.373 1.367 2.235.62-.372 1.242-2.111-.869-.622 2.36-1.49-.373zM38.376 77c-.124-.124-.249-.62-.249-1.242 0-.745-.372-.993-.993-.993h-1.242l-.124 2.111h-1.49l.248-6.21 2.98.125c1.615 0 2.36.869 2.36 1.987 0 .87-.62 1.49-1.366 1.49.62.124.993.497 1.118 1.242 0 .87.124 1.242.248 1.49h-1.49zm-1.118-3.477c.745 0 1.118-.124 1.242-.745 0-.497-.373-.87-1.118-.87H36.14v1.74l1.118-.125zm8.445-3.726l3.85 5.589-1.614.372-.87-1.242-2.483.497-.249 1.49-1.49.373 1.118-6.707 1.738-.372zm-.87 4.098l1.615-.372-1.242-1.863-.372 2.235zm10.309-3.602l-1.615-3.353 1.242-.62 2.733 5.588-1.118.497-4.223-2.236 1.739 3.602-1.242.62-2.732-5.588 1.366-.62 3.85 2.11zm3.726-7.078c1.49-1.243 2.98-.994 4.098.248l-1.118.993c-.62-.496-1.366-.745-2.111-.124-.745.621-.745 1.615 0 2.484.745.87 1.739 1.118 2.484.497.745-.621.745-1.49.248-2.111l1.118-.87c.87 1.242.87 2.857-.621 4.099-1.366 1.117-3.229.993-4.47-.497-1.243-1.739-.995-3.602.372-4.72zm4.719-4.72l4.844 3.974-.994 1.118-4.72-3.974.87-1.118zm5.589-.869c.745.373 1.366 0 1.739-.62.372-.622.372-1.119 0-1.243-.373-.248-.621.124-.994.497l-.87.87c-.62.744-1.49 1.117-2.359.62-1.118-.62-1.242-1.863-.497-3.105.87-1.49 1.987-1.862 3.23-1.241l-.622 1.241c-.62-.372-1.242-.124-1.614.621-.373.497-.249.994.124 1.242.248.125.62 0 .87-.372l.744-.87c.87-.993 1.74-1.241 2.608-.62 1.118.62 1.118 1.987.373 3.228-.87 1.49-2.111 2.112-3.477 1.367l.745-1.615zm0-10.184c.497-1.863 1.987-2.484 3.477-2.111l-.372 1.366c-.746-.124-1.615.124-1.863 1.118-.249.993.248 1.738 1.366 2.11 1.118.373 1.987 0 2.235-.993.249-.993-.248-1.614-.993-1.987l.497-1.366c1.49.497 2.36 1.863 1.738 3.726-.496 1.739-2.111 2.732-3.974 2.111-1.739-.62-2.608-2.235-2.111-3.974zM77 39.99c-.124 1.863-1.49 3.105-3.353 3.105-1.863 0-3.23-1.49-3.105-3.353.124-1.863 1.49-3.229 3.353-3.105 1.863 0 3.105 1.49 3.105 3.353zm-5.216-.248c0 .994.745 1.739 1.863 1.739 1.118 0 1.987-.621 1.987-1.615 0-.993-.745-1.738-1.863-1.738-1.118 0-1.987.62-1.987 1.614zM7.824 15.276l6.582 1.614-.993 1.242-1.366-.372-1.49 2.111.745 1.242-.87 1.242-3.601-5.713.993-1.366zm2.111 3.602l.994-1.367-2.235-.62 1.241 1.987zm4.968-5.589c.621.62 1.366.497 1.863 0 .497-.373.621-.87.373-1.242-.249-.373-.497-.124-.994.124l-.993.621c-.87.497-1.74.497-2.484-.248-.745-.994-.621-2.112.62-3.105 1.243-1.118 2.485-1.118 3.478 0l-.993.993c-.497-.496-1.118-.496-1.615 0-.497.373-.62.87-.248 1.118.248.248.496.248.993 0l.994-.62c1.118-.622 1.987-.622 2.608.248.87.993.372 2.235-.621 3.104-1.242 1.118-2.732 1.242-3.726.125l.745-1.118zm6.21-4.596c.497.746 1.242.746 1.863.373.62-.248.87-.745.62-1.118-.248-.372-.62-.248-1.117-.124l-1.118.373c-.993.248-1.863.124-2.36-.745-.62-1.118-.123-2.236 1.243-2.981 1.49-.745 2.732-.497 3.353.745l-1.242.745c-.373-.62-.994-.745-1.615-.372-.62.248-.745.745-.496 1.117.124.373.496.249.869.125l1.242-.373c1.242-.373 2.111-.124 2.484.745.62 1.118-.124 2.236-1.366 2.98-1.49.746-2.857.622-3.602-.744l1.242-.746zM32.414 6.83l-4.719 1.243-1.614-6.086L30.676.745l.372 1.242-3.104.87.372 1.241 2.484-.62.373 1.117-2.484.621.372 1.242 3.23-.87.123 1.243zm4.72-.496l-1.366-4.595.124 4.595h-1.366l-.124-6.21h2.36l1.241 4.099L38.748 0h2.236l.124 6.21h-1.49l-.125-4.595-1.117 4.595-1.242.124zm9.315.993l-2.981-.745 1.49-6.085 2.733.745c1.614.372 2.11 1.242 1.862 2.235-.124.621-.745.994-1.366.994.745.372 1.118.87.87 1.738-.249.994-1.242 1.49-2.608 1.118zm-.994-2.856l-.373 1.366 1.367.372c.62.125.993 0 1.117-.496.124-.373-.124-.745-.745-.87l-1.366-.372zm.248-1.118l1.242.248c.621.125.994-.124.994-.372.124-.373-.124-.745-.745-.87l-1.242-.248-.249 1.242zm9.067.373l-2.236 4.47 2.856 1.367-.496 1.117-4.223-1.987 2.732-5.713 1.367.746zm5.588 11.177l-3.725-2.98 3.85-4.968 3.725 2.98-.745.994-2.608-2.112-.745.994 1.987 1.615-.745.993-1.987-1.614-.87.993 2.608 2.111-.745.994zm6.458-2.483l1.49 1.862c1.242 1.615 1.118 3.354-.372 4.596-1.49 1.241-3.23.993-4.471-.622l-1.49-1.862 4.843-3.975zm-2.608 4.967c.745.87 1.739.994 2.732.249.994-.746 1.118-1.74.373-2.608l-.497-.622-2.98 2.36.372.621zM3.974 34.402l-1.242-.124c.497-3.85 1.615-7.7 3.353-11.178l1.118.497c-1.614 3.477-2.732 7.079-3.229 10.805zm68.679-.87a34.873 34.873 0 00-3.726-11.177l1.118-.621a35.154 35.154 0 013.974 11.674l-1.366.124z" fill="#FFB966"/><path d="M34.723 47.237v4.082h-1.428" stroke="#FFB966" stroke-width="2.653" stroke-linecap="round" stroke-linejoin="round"/><path d="M41.27 29.168L30.872 31.3a2.96 2.96 0 00-2.305 3.493l2.05 9.998a2.96 2.96 0 003.493 2.305l10.398-2.132a2.96 2.96 0 002.305-3.493l-2.05-9.998a2.96 2.96 0 00-3.493-2.305z" fill="#F9F7ED" stroke="#FFB966" stroke-width="2.245"/><path d="M29.667 34.568a1.837 1.837 0 011.43-2.169l10.398-2.131a1.837 1.837 0 012.169 1.43l.204 1-13.996 2.87-.205-1z" fill="#FF5454"/><path d="M34.062 28.562a1.327 1.327 0 00-2.6.533l.287 1.4a1.327 1.327 0 002.6-.533l-.287-1.4zm5.798-1.189a1.327 1.327 0 00-2.6.533l.287 1.4a1.327 1.327 0 002.6-.533l-.287-1.4z" fill="#FFB966"/><path d="M37.173 39.89c-.49 0-.885-.34-1.02-.51h2.04c-.136.17-.53.51-1.02.51z" stroke="#1A1D26" stroke-width=".816" stroke-linecap="round" stroke-linejoin="round"/><path d="M29.212 41.012c-.656.806-1.688 1.56-3.47 1.41m25.106-6.921c-.657.805-1.688 1.56-3.47 1.41" stroke="#FFB966" stroke-width="2.653" stroke-linecap="round"/><path d="M40.642 46.83v4.694h-1.428" stroke="#FFB966" stroke-width="2.653" stroke-linecap="round" stroke-linejoin="round"/><path d="M35.132 37.746a.816.816 0 00-1.633 0v1.02a.816.816 0 101.633 0v-1.02zm5.714 0a.816.816 0 10-1.632 0v1.02a.816.816 0 101.633 0v-1.02z" fill="#1A1D26"/></g><defs><clipPath id="clip0_1_215"><path fill="#fff" d="M0 0h77v77H0z"/></clipPath></defs></svg>