<svg width="510" height="104" viewBox="0 0 510 104" fill="none" xmlns="http://www.w3.org/2000/svg">
<path d="M0.612915 96.711H3.34361L6.32249 95.3526L9.30143 92.9069H12.2803L15.2593 74.7013L18.2381 29.5933L24.196 6.49637L27.6716 21.7134L30.6506 10.3005L33.6289 12.4743L36.3596 36.9303L39.3385 41.8217H43.0622L45.7929 62.2012L48.7718 67.9079L51.7508 54.593L57.9569 57.0386L60.9359 73.8858L64.163 85.2987L67.142 86.6572L70.1209 92.6351L72.8516 96.4398L76.5753 97.7982L79.5543 96.4398L82.5332 91.5485L85.5121 84.2115L87.9946 67.0925L91.2218 36.9303L94.6972 13.5609L97.6755 10.0286L100.903 16.5502L103.385 28.2349L106.612 33.1256L110.088 34.4847L113.067 27.6913L116.046 49.158L118.776 30.4088L121.755 44.5385L125.479 56.495L128.21 67.9079L131.189 58.3971L134.168 59.7555L135.657 75.5161L137.147 87.7444L140.374 81.2228L143.601 97.5264L149.559 95.6244L152.538 101.059L156.013 83.1249L158.744 70.3536L161.722 63.2884L164.701 51.0601L167.68 45.8975L170.659 39.919L173.886 50.2453L176.865 8.81084L180.092 40.4626L182.823 30.4088L186.05 36.1149L188.781 47.7996L192.256 44.5385L195.235 49.4298L198.214 70.0818L201.193 62.2012L204.42 65.7341L207.151 79.3202L210.378 86.3854L213.854 89.1028L216.584 92.3633L222.542 87.7444L225.769 94.809L231.727 90.4612L234.706 79.3202L237.685 9.75684L240.663 28.7779L243.891 15.1918L246.87 0.452515L250.097 35.0283L253.076 22.8L255.806 34.4847L259.282 36.9303H262.509L265.24 34.4847L268.467 40.7344L277.404 66.277L283.362 83.6679L287.085 91.0049L289.567 98.6137L292.794 94.809L296.022 96.168L298.752 86.1135L301.731 79.049L304.958 86.1135L307.937 58.1252L311.164 45.8975L314.143 43.1801L317.122 34.4847L320.101 33.3974L323.08 48.8862L326.307 51.3319L329.286 43.1801H335.492L338.223 65.4623L341.699 64.1032L344.926 60.0273L348.401 67.6361L350.635 81.7658H354.359L356.593 84.2115L359.82 89.9183L365.778 97.7982L369.005 100.244L371.984 101.331L375.211 93.9942H378.19L384.148 68.4509L387.127 62.2012L390.106 39.919L393.085 47.5278L396.064 55.136L399.291 54.593L402.27 57.5816L408.228 63.0166L411.455 79.3202L414.93 61.6575L417.909 74.7013L421.632 73.3422L423.618 79.049L426.597 89.9183L429.824 92.6351L433.052 96.9828L439.009 102.146L442.485 98.07L444.967 99.1567L448.195 101.331L451.422 90.4612L457.131 65.7341L460.11 59.4837L463.089 52.9621L466.316 49.9735L469.295 51.8755L472.274 64.9186L475.005 48.3432L478.232 55.9514L481.707 52.6909L484.686 58.3971L487.665 66.5489L490.396 64.375L493.623 63.0166L496.602 77.4181L499.829 83.3967L503.304 86.6572L506.035 95.6244L509.014 96.711" stroke="#3CA177" stroke-width="2"/>
</svg>
