<svg width="510" height="107" viewBox="0 0 510 107" fill="none" xmlns="http://www.w3.org/2000/svg">
<path d="M0.612915 100.375H3.34223L6.31973 97.8944L9.29717 90.4513L12.5227 72.8081L18.2295 20.1542L21.207 9.12735L24.4326 1.40869L27.9061 3.06278L34.6056 13.5385L36.8385 16.2949L46.2675 40.83L49.2445 46.3434L55.1999 57.6458L64.6282 86.5914L67.8541 93.7589L70.3353 97.8944L73.3124 100.375H76.7859L79.5154 97.8944L82.4931 91.5536L85.4708 74.7378L88.1996 51.3056L91.1773 28.7002L94.6508 20.1542L98.125 14.6408L101.102 16.2949L103.335 20.1542L110.531 28.7002L114.5 35.3165L119.215 46.3434L125.418 53.2353L128.148 57.6458L132.614 69.7756L136.087 82.1809L140.305 91.5536L143.779 97.8944L146.508 100.375H149.486L152.711 98.9967L155.441 91.5536L158.914 76.6675L161.644 51.3056L164.621 31.7328L167.847 23.4624L170.824 17.3978L174.05 18.7763L177.027 23.4624L180.005 25.9438L186.208 33.6625L189.185 41.3811L192.907 46.3434L195.636 51.3056L198.614 55.4405L204.569 68.9488L206.802 75.8401L211.764 88.7972L213.75 94.0351L216.478 97.8944L219.704 100.375H222.93L225.907 98.9967L229.133 91.5536L231.862 75.8401L235.088 47.7219L237.817 28.7002L241.043 19.603L244.268 15.1925L247.246 17.3978L252.208 25.9438L256.426 31.4572L259.652 38.0729L263.622 47.7219L265.855 52.1324L268.832 57.0946L271.809 60.6784L277.765 72.5326L283.72 90.7269L289.426 98.9967L293.149 101.754H296.374L299.103 100.375L302.08 94.0351L305.058 79.7001L307.539 57.0946L311.013 39.1759L314.239 30.6299L317.216 25.9438L320.442 28.7002L323.419 34.2136L326.893 39.1759L329.622 42.7596L332.599 47.7219L338.058 61.2295L344.758 70.3267L354.186 89.8995L357.411 96.5159L360.141 100.651L363.119 104.235L366.096 105.613L369.322 105.337L371.803 104.235L375.276 100.375L378.502 88.7972L381.232 73.6349L384.209 62.6081L387.682 57.0946L390.412 54.062L393.885 55.4405L396.615 59.0243L399.841 60.4028L405.547 65.3651L408.773 70.3267L417.706 77.7704L423.66 85.2135L428.126 93.7589L432.841 101.478L435.818 104.235L439.044 105.613H442.518L445.247 104.235L448.224 100.651L451.45 91.5536L454.427 75.8401L457.156 64.2621L463.359 55.4405H466.834L469.562 57.6458H472.788L478.991 60.4028L484.698 65.3651L490.901 67.8459L494.127 70.3267L497.104 75.289L500.826 84.6617L506.036 95.413L509.014 98.9967" stroke="#D34949" stroke-width="2" stroke-dasharray="2 4"/>
</svg>
